<svg width="40" height="40" viewBox="0 0 40 40" fill="none" xmlns="http://www.w3.org/2000/svg">
  <circle cx="20" cy="20" r="20" fill="#E9ECEF"/>
  <path d="M20 10C14.48 10 10 14.48 10 20C10 25.52 14.48 30 20 30C25.52 30 30 25.52 30 20C30 14.48 25.52 10 20 10ZM16 15C16 13.9 16.9 13 18 13C19.1 13 20 13.9 20 15C20 16.1 19.1 17 18 17C16.9 17 16 16.1 16 15ZM22 25H14V23C14 21.34 17.33 20.5 18 20.5C18.67 20.5 22 21.34 22 23V25ZM22 17C20.9 17 20 16.1 20 15C20 13.9 20.9 13 22 13C23.1 13 24 13.9 24 15C24 16.1 23.1 17 22 17ZM26 25H24V23C24 22.46 23.82 21.94 23.51 21.48C24.99 21.82 26 22.79 26 23V25Z" fill="#6C757D"/>
</svg>