<svg width="80" height="80" viewBox="0 0 80 80" fill="none" xmlns="http://www.w3.org/2000/svg">
  <rect width="80" height="80" rx="10" fill="#4361EE"/>
  <path d="M40 20C32.268 20 26 26.268 26 34C26 41.732 32.268 48 40 48C47.732 48 54 41.732 54 34C54 26.268 47.732 20 40 20ZM46 36H42V40C42 41.104 41.104 42 40 42C38.896 42 38 41.104 38 40V36H34C32.896 36 32 35.104 32 34C32 32.896 32.896 32 34 32H38V28C38 26.896 38.896 26 40 26C41.104 26 42 26.896 42 28V32H46C47.104 32 48 32.896 48 34C48 35.104 47.104 36 46 36Z" fill="white"/>
  <path d="M60 60H54V54C54 51.794 52.206 50 50 50H30C27.794 50 26 51.794 26 54V60H20C17.794 60 16 58.206 16 56V20C16 17.794 17.794 16 20 16H60C62.206 16 64 17.794 64 20V56C64 58.206 62.206 60 60 60ZM34 54H46V60H34V54Z" fill="white"/>
</svg>